<svg
        xmlns="http://www.w3.org/2000/svg"
        xmlns:xlink="http://www.w3.org/1999/xlink"
        width="80px" height="81px">
    <path fill-rule="evenodd"  fill="rgb(255, 255, 255)"
          d="M78.924,45.702 L1.076,45.702 C0.935,45.702 0.820,45.588 0.820,45.447 L0.820,31.377 L79.179,31.377 L79.179,45.447 C79.179,45.588 79.064,45.702 78.924,45.702 ZM73.837,36.521 L73.837,36.493 L61.201,36.493 L61.201,41.608 L73.837,41.608 L73.837,36.537 L73.838,36.521 L73.837,36.521 ZM0.820,4.001 C0.820,2.167 2.313,0.676 4.149,0.676 L75.851,0.676 C77.686,0.676 79.179,2.167 79.179,4.001 L79.179,26.259 L0.820,26.259 L0.820,4.001 ZM12.534,20.424 L67.465,20.424 L67.465,16.537 L12.534,16.537 L12.534,20.424 ZM12.534,13.467 L67.465,13.467 L67.465,9.581 L12.534,9.581 L12.534,13.467 ZM20.271,54.369 C20.855,54.369 21.415,54.654 21.734,55.110 C22.028,55.529 22.094,56.048 21.917,56.533 C20.547,60.297 20.425,62.787 21.543,64.147 L22.074,64.784 C22.571,65.377 23.136,66.048 23.663,66.758 C24.271,67.453 25.152,68.686 25.261,70.691 C25.389,73.046 23.600,76.110 19.943,79.800 C19.611,80.137 19.164,80.323 18.686,80.323 C18.103,80.323 17.543,80.041 17.223,79.583 C16.930,79.166 16.864,78.647 17.041,78.161 C18.410,74.397 18.532,71.906 17.415,70.546 L16.879,69.902 C16.383,69.313 15.821,68.643 15.294,67.935 C14.687,67.238 13.806,66.005 13.698,63.1000 C13.568,61.648 15.357,58.584 19.014,54.892 C19.347,54.556 19.794,54.369 20.271,54.369 ZM40.793,54.369 C41.375,54.369 41.935,54.653 42.255,55.110 C42.548,55.529 42.616,56.048 42.439,56.533 C41.068,60.297 40.946,62.787 42.064,64.147 L42.599,64.789 C43.095,65.381 43.658,66.051 44.185,66.758 C44.791,67.454 45.673,68.687 45.781,70.693 C45.910,73.047 44.121,76.110 40.463,79.800 C40.131,80.137 39.684,80.323 39.207,80.323 C38.624,80.323 38.064,80.041 37.744,79.583 C37.451,79.166 37.384,78.647 37.561,78.161 C38.931,74.397 39.054,71.906 37.935,70.546 L37.405,69.908 C36.908,69.316 36.343,68.645 35.815,67.935 C35.208,67.239 34.327,66.006 34.217,64.000 C34.090,61.647 35.879,58.584 39.535,54.892 C39.869,54.556 40.315,54.369 40.793,54.369 ZM61.314,54.369 C61.896,54.369 62.456,54.654 62.777,55.110 C63.070,55.529 63.136,56.048 62.959,56.533 C61.588,60.297 61.465,62.787 62.584,64.147 L63.116,64.784 C63.614,65.377 64.177,66.048 64.705,66.758 C65.312,67.453 66.194,68.686 66.303,70.691 C66.430,73.046 64.641,76.110 60.984,79.800 C60.651,80.137 60.204,80.323 59.727,80.323 C59.144,80.323 58.584,80.041 58.265,79.583 C57.971,79.166 57.904,78.647 58.081,78.161 C59.451,74.397 59.574,71.906 58.457,70.546 L57.919,69.902 C57.422,69.311 56.862,68.643 56.335,67.935 C55.728,67.238 54.847,66.005 54.738,63.1000 C54.610,61.648 56.398,58.584 60.056,54.892 C60.389,54.556 60.836,54.369 61.314,54.369 Z"/>
</svg>