<svg
        xmlns="http://www.w3.org/2000/svg"
        xmlns:xlink="http://www.w3.org/1999/xlink"
        width="59px" height="81px">
    <path fill-rule="evenodd"  fill="rgb(255, 255, 255)"
          d="M41.725,16.541 C36.318,12.221 34.203,7.454 33.390,4.065 C32.738,1.343 33.085,1.050 33.085,1.050 C33.051,0.726 32.850,0.446 32.552,0.308 C32.259,0.173 31.912,0.199 31.646,0.385 C31.646,0.385 30.599,0.611 28.889,2.266 C25.001,6.035 20.600,12.324 23.501,20.921 C26.610,30.146 24.967,32.076 23.338,31.949 C21.225,31.789 20.898,30.490 21.238,26.447 C21.631,21.724 17.337,17.690 17.337,17.690 C17.337,17.690 10.668,28.273 5.466,35.845 C2.391,40.321 0.916,46.008 0.916,51.197 L0.813,51.197 C0.813,67.158 13.777,80.100 29.768,80.100 C45.760,80.100 58.723,67.158 58.723,51.197 C59.822,37.336 52.280,24.968 41.725,16.541 ZM29.819,71.960 C21.000,71.960 13.847,64.823 13.847,56.018 C13.847,53.021 14.680,50.217 16.121,47.820 C17.362,52.433 21.577,55.828 26.588,55.828 C32.572,55.828 37.427,50.984 37.427,45.010 C37.427,43.871 37.246,42.770 36.919,41.739 C42.180,44.347 45.792,49.762 45.792,56.018 C45.792,64.823 38.640,71.960 29.819,71.960 Z"/>
</svg>