<svg
        xmlns="http://www.w3.org/2000/svg"
        xmlns:xlink="http://www.w3.org/1999/xlink"
        width="82px" height="74px">
    <path fill-rule="evenodd"  fill="rgb(255, 255, 255)"
          d="M80.496,59.298 C79.035,61.177 76.314,61.524 74.419,60.075 L44.510,37.201 L49.805,30.398 L79.713,53.271 C81.608,54.721 81.959,57.417 80.496,59.298 ZM54.594,19.541 L36.982,6.073 C35.582,5.002 35.323,3.006 36.403,1.617 C37.484,0.230 39.497,-0.030 40.898,1.042 L58.508,14.511 C59.910,15.584 60.169,17.578 59.089,18.968 C58.007,20.357 55.995,20.614 54.594,19.541 ZM36.553,43.032 L18.643,29.336 L35.453,7.735 L53.362,21.431 L36.553,43.032 ZM35.371,49.447 C34.290,50.836 32.278,51.092 30.875,50.021 L13.266,36.554 C11.864,35.482 11.605,33.486 12.686,32.097 C13.766,30.708 15.779,30.450 17.181,31.521 L34.791,44.990 C36.192,46.062 36.452,48.057 35.371,49.447 ZM31.088,62.759 L31.088,65.821 L3.202,65.821 L3.202,62.759 C3.202,60.479 5.065,58.631 7.365,58.631 L26.926,58.631 C29.226,58.631 31.088,60.480 31.088,62.759 ZM33.320,73.977 L0.970,73.977 L0.970,68.413 L33.320,68.413 L33.320,73.977 Z"/>
</svg>