<svg
        xmlns="http://www.w3.org/2000/svg"
        xmlns:xlink="http://www.w3.org/1999/xlink"
        width="65px" height="80px">
    <path fill-rule="evenodd"  fill="rgb(255, 255, 255)"
          d="M48.234,29.084 C48.360,29.461 48.471,29.634 48.545,29.735 C48.662,29.865 48.690,29.931 49.141,30.124 C49.584,30.303 50.481,30.511 51.884,30.508 C53.879,30.508 62.615,30.508 64.842,30.508 L64.842,43.906 C64.223,43.906 59.564,43.906 57.240,43.906 C52.618,43.906 52.001,50.957 41.027,50.957 C30.051,50.957 30.521,43.906 25.898,43.906 C22.965,43.906 21.140,43.906 17.985,43.906 C16.399,43.904 15.373,44.138 14.834,44.354 C14.283,44.583 14.192,44.706 14.049,44.868 C13.958,44.983 13.847,45.161 13.723,45.528 C13.558,46.010 13.406,46.829 13.408,47.988 C13.408,54.850 13.408,56.005 13.408,56.005 L-0.000,56.005 C-0.000,56.005 -0.000,54.850 -0.000,47.988 C0.002,45.438 0.350,42.910 1.298,40.478 C2.232,38.057 3.856,35.758 6.021,34.091 C7.458,32.973 9.088,32.137 10.793,31.572 C13.071,30.817 15.467,30.511 17.985,30.508 C22.308,30.508 25.928,30.508 30.522,30.508 C31.925,30.511 32.823,30.303 33.265,30.124 C33.715,29.931 33.742,29.865 33.860,29.735 C33.933,29.634 34.046,29.462 34.172,29.084 C34.338,28.582 34.501,27.704 34.499,26.444 C34.499,23.246 34.499,24.986 34.499,22.601 C33.168,22.203 33.168,21.212 33.168,19.622 C33.168,18.045 35.725,16.271 38.491,15.469 L38.491,12.865 C34.335,12.865 26.777,12.865 24.364,12.865 C20.980,12.865 22.116,8.268 24.364,7.450 C27.026,6.485 31.760,4.660 36.223,3.693 C36.928,1.555 38.919,-0.001 41.296,-0.001 C43.672,-0.001 45.666,1.555 46.369,3.693 C50.833,4.659 55.567,6.484 58.228,7.450 C60.478,8.267 61.614,12.865 58.228,12.865 C55.817,12.865 48.256,12.865 44.100,12.865 L44.100,15.468 C46.868,16.268 49.424,18.045 49.424,19.622 C49.424,21.280 49.418,22.283 47.907,22.648 C47.907,24.367 47.907,21.780 47.907,26.444 C47.904,27.704 48.067,28.582 48.234,29.084 ZM6.442,63.532 C7.078,64.014 11.443,69.918 11.506,74.413 C11.506,74.458 11.513,74.503 11.513,74.548 C11.513,74.724 11.503,74.897 11.486,75.068 C11.483,75.088 11.486,75.115 11.483,75.135 L11.476,75.135 C11.182,77.657 9.042,79.613 6.442,79.613 C3.843,79.613 1.703,77.657 1.410,75.135 L1.401,75.135 C1.399,75.115 1.401,75.088 1.399,75.067 C1.382,74.897 1.373,74.724 1.373,74.548 C1.373,74.502 1.379,74.458 1.379,74.413 C1.442,69.918 5.807,64.014 6.442,63.532 Z"/>
</svg>