<svg
        xmlns="http://www.w3.org/2000/svg"
        xmlns:xlink="http://www.w3.org/1999/xlink"
        width="277px" height="227px">
    <defs>
        <filter filterUnits="userSpaceOnUse" id="Filter_0" x="0px" y="0px" width="277px" height="227px"  >
            <feOffset in="SourceAlpha" dx="0" dy="4" />
            <feGaussianBlur result="blurOut" stdDeviation="1.414" />
            <feFlood flood-color="rgb(0, 0, 0)" result="floodOut" />
            <feComposite operator="atop" in="floodOut" in2="blurOut" />
            <feComponentTransfer><feFuncA type="linear" slope="0.15"/></feComponentTransfer>
            <feMerge>
                <feMergeNode/>
                <feMergeNode in="SourceGraphic"/>
            </feMerge>
        </filter>

    </defs>
    <g filter="url(#Filter_0)">
        <path fill-rule="evenodd"  fill="rgb(255, 255, 255)"
              d="M248.727,154.097 C235.778,154.456 219.952,148.712 216.355,161.995 C212.759,175.279 206.005,192.028 188.317,191.092 C170.229,190.134 172.474,181.740 157.008,179.228 C141.541,176.715 139.023,190.716 123.917,195.023 C108.810,199.331 107.731,188.202 96.221,177.073 C84.712,165.944 72.123,180.663 55.937,182.458 C39.752,184.253 31.119,173.124 34.716,158.764 C38.312,144.403 49.572,131.895 36.623,126.510 C23.675,121.125 8.099,118.196 6.660,103.118 C5.222,88.039 17.619,77.650 29.848,76.572 C42.078,75.496 49.512,73.730 43.398,60.448 C37.284,47.163 40.775,30.947 52.341,24.853 C78.237,11.212 91.186,42.087 99.818,33.829 C108.451,25.571 101.845,9.337 123.557,6.185 C143.339,3.313 146.325,25.730 157.367,26.649 C170.316,27.726 176.464,18.371 189.739,11.571 C207.042,2.706 225.216,18.802 216.944,34.957 C211.888,44.831 214.859,54.204 236.497,52.855 C266.706,50.974 261.316,78.345 251.964,90.193 C242.612,102.041 249.446,109.939 261.316,123.581 C273.185,137.223 261.675,153.737 248.727,154.097 ZM74.989,207.956 C78.035,206.335 81.690,207.655 81.691,210.389 C81.691,213.429 79.326,215.050 76.410,215.050 C72.108,215.050 71.209,209.969 74.989,207.956 ZM85.553,190.511 C90.491,187.882 96.416,190.024 96.417,194.454 C96.418,199.383 92.584,202.011 87.857,202.011 C80.881,202.011 79.425,193.773 85.553,190.511 Z"/>
    </g>
</svg>