<svg
        xmlns="http://www.w3.org/2000/svg"
        xmlns:xlink="http://www.w3.org/1999/xlink"
        width="52px" height="80px">
    <path fill-rule="evenodd"  fill="rgb(255, 255, 255)"
          d="M40.530,46.969 C36.505,49.640 36.145,51.635 36.145,56.620 L16.831,56.620 C16.831,51.634 16.471,49.640 12.443,46.969 C5.540,42.390 0.984,34.525 0.984,25.597 C0.984,11.459 12.402,-0.001 26.488,-0.001 C40.574,-0.001 51.992,11.459 51.992,25.597 C51.992,34.525 47.436,42.390 40.530,46.969 ZM32.929,14.310 L20.608,14.310 L18.367,31.819 L23.408,31.819 L21.167,46.311 L34.609,26.386 L28.448,26.386 L32.929,14.310 ZM17.836,59.965 L35.140,59.965 C36.473,59.965 37.555,61.048 37.555,62.387 C37.555,63.727 36.473,64.811 35.140,64.811 L17.836,64.811 C16.503,64.811 15.421,63.727 15.421,62.387 C15.421,61.048 16.503,59.965 17.836,59.965 ZM17.836,67.954 L35.140,67.954 C36.473,67.954 37.555,69.039 37.555,70.380 C37.555,71.718 36.473,72.802 35.140,72.802 L17.836,72.802 C16.503,72.802 15.421,71.718 15.421,70.380 C15.421,69.039 16.503,67.954 17.836,67.954 ZM26.546,79.999 C24.197,79.999 22.154,78.681 21.110,76.742 L31.983,76.742 C30.939,78.681 28.896,79.999 26.546,79.999 Z"/>
</svg>