<svg
        xmlns="http://www.w3.org/2000/svg"
        xmlns:xlink="http://www.w3.org/1999/xlink"
        width="20px" height="20px">
    <path fill-rule="evenodd"  fill="#f0901c"
          d="M-0.000,19.999 L-0.000,12.654 L2.625,12.654 L2.625,17.373 L17.373,17.373 L17.373,12.654 L19.1000,12.654 L19.1000,19.999 L-0.000,19.999 ZM10.323,12.761 C10.160,12.975 9.839,12.975 9.677,12.761 L5.458,7.193 C5.256,6.926 5.446,6.544 5.782,6.544 L7.581,6.544 C7.805,6.544 7.986,6.362 7.986,6.138 L7.986,0.404 C7.986,0.181 8.168,-0.001 8.391,-0.001 L11.608,-0.001 C11.832,-0.001 12.013,0.181 12.013,0.404 L12.013,6.138 C12.013,6.362 12.195,6.544 12.418,6.544 L14.218,6.544 C14.553,6.544 14.743,6.926 14.541,7.193 L10.323,12.761 Z"/>
</svg>